<?xml version="1.0" standalone="no"?>
<!DOCTYPE svg PUBLIC "-//W3C//DTD SVG 20010904//EN"
 "http://www.w3.org/TR/2001/REC-SVG-20010904/DTD/svg10.dtd">
<svg version="1.0" xmlns="http://www.w3.org/2000/svg"
 width="168.000000pt" height="90.000000pt" viewBox="0 0 168.000000 90.000000"
 preserveAspectRatio="xMidYMid meet">

<g transform="translate(0.000000,90.000000) scale(0.100000,-0.100000)"
fill="#000000" stroke="none">
<path d="M0 450 l0 -450 840 0 840 0 0 450 0 450 -840 0 -840 0 0 -450z m1030
415 c210 -54 610 -323 610 -411 0 -40 -50 -72 -122 -79 -10 -1 -21 -4 -24 -8
-4 -4 -17 -7 -28 -7 -36 0 -121 -35 -261 -110 -118 -61 -141 -70 -170 -64 -26
5 -42 1 -63 -12 -40 -28 -123 -34 -142 -11 -8 9 -36 20 -64 24 -41 5 -51 3
-63 -13 -13 -18 -15 -18 -27 -1 -9 11 -27 17 -53 17 -30 0 -70 16 -159 64
-124 67 -204 97 -312 117 -106 20 -136 64 -93 136 50 81 384 297 538 347 115
38 307 43 433 11z m-648 -738 l28 -42 0 33 c0 17 -4 32 -10 32 -5 0 -10 4 -10
9 0 6 22 10 49 9 46 0 50 -2 61 -31 l12 -32 16 33 c8 17 23 32 32 32 14 0 16
-9 12 -55 -3 -34 -1 -55 6 -55 15 0 46 84 33 88 -22 7 -10 22 18 22 25 0 31
-6 51 -55 13 -32 28 -55 37 -55 13 0 15 11 11 55 l-5 55 38 0 c32 0 69 -19 69
-36 0 -20 -25 -44 -45 -44 -31 0 -43 -20 -16 -27 38 -10 11 -22 -50 -22 -54 1
-59 2 -54 20 5 15 1 19 -20 19 -19 0 -25 -5 -23 -17 2 -14 -5 -19 -36 -21 -21
-2 -43 1 -49 7 -8 8 -8 11 1 11 7 0 12 14 12 33 l-1 32 -16 -29 -16 -30 -18
23 -19 23 0 -25 c0 -14 6 -27 13 -30 8 -3 6 -7 -5 -12 -26 -10 -55 2 -40 17
18 18 15 88 -3 88 -12 0 -15 -13 -15 -55 0 -30 -4 -55 -9 -55 -4 0 -21 19 -37
43 -26 39 -29 40 -32 18 -2 -13 1 -28 7 -34 17 -17 13 -29 -10 -25 -18 3 -21
10 -22 66 -2 76 15 82 55 19z m682 21 c9 -12 16 -30 16 -39 0 -25 -39 -69 -61
-69 -27 0 -59 36 -59 67 0 58 72 86 104 41z m127 6 c10 -12 10 -20 1 -35 -14
-22 -1 -59 20 -59 9 0 8 -4 -1 -13 -10 -10 -17 -7 -35 16 -12 15 -27 27 -34
27 -16 0 -16 -27 1 -33 8 -3 6 -7 -5 -12 -10 -4 -25 -4 -34 -1 -13 5 -14 9 -4
21 11 14 10 34 -6 88 -5 14 1 17 39 17 28 0 49 -6 58 -16z m149 -4 c0 -22 -10
-26 -27 -9 -6 6 -21 9 -34 7 -20 -2 -25 -10 -27 -40 -3 -33 0 -38 23 -44 15
-4 31 -2 38 5 8 8 7 11 -5 11 -9 0 -20 5 -23 10 -4 6 8 10 28 10 31 0 34 -2
29 -25 -9 -47 -95 -46 -113 2 -20 54 8 93 67 93 37 0 44 -3 44 -20z m-443
-106 c-9 -9 -28 6 -21 18 4 6 10 6 17 -1 6 -6 8 -13 4 -17z"/>
<path d="M774 606 c-41 -41 -44 -66 -9 -66 15 0 25 6 25 15 0 8 9 19 20 25 21
11 28 60 9 60 -6 0 -26 -15 -45 -34z"/>
<path d="M840 621 c0 -25 56 -81 81 -81 38 0 12 64 -38 89 -31 16 -43 14 -43
-8z"/>
<path d="M813 573 c-16 -6 -17 -33 -3 -33 11 0 26 28 19 34 -2 2 -10 1 -16 -1z"/>
<path d="M840 566 c0 -14 29 -31 38 -21 6 6 -18 35 -29 35 -5 0 -9 -6 -9 -14z"/>
<path d="M740 511 c0 -23 55 -81 76 -81 21 0 17 43 -6 58 -11 7 -20 19 -20 27
0 9 -10 15 -25 15 -18 0 -25 -5 -25 -19z"/>
<path d="M802 514 c1 -9 9 -19 16 -22 9 -3 13 2 10 14 -1 9 -9 19 -16 22 -9 3
-13 -2 -10 -14z"/>
<path d="M853 523 c-14 -5 -18 -33 -5 -33 10 0 32 22 32 32 0 9 -8 9 -27 1z"/>
<path d="M885 511 c-3 -11 -15 -23 -26 -26 -26 -9 -27 -55 0 -55 25 0 81 56
81 81 0 27 -46 26 -55 0z"/>
<path d="M750 131 c0 -16 6 -21 26 -21 33 0 30 33 -4 38 -17 3 -22 -2 -22 -17z"/>
<path d="M637 125 c-8 -20 -4 -29 11 -24 5 2 6 13 2 23 -6 19 -7 19 -13 1z"/>
<path d="M992 138 c-16 -16 -15 -53 3 -68 18 -15 52 -4 60 20 13 43 -33 78
-63 48z"/>
<path d="M1130 130 c0 -22 7 -25 29 -11 16 10 6 31 -15 31 -8 0 -14 -9 -14
-20z"/>
</g>
</svg>
