<?xml version="1.0" standalone="no"?>
<!DOCTYPE svg PUBLIC "-//W3C//DTD SVG 20010904//EN"
 "http://www.w3.org/TR/2001/REC-SVG-20010904/DTD/svg10.dtd">
<svg version="1.0" xmlns="http://www.w3.org/2000/svg"
 width="150.000000pt" height="42.000000pt" viewBox="0 0 150.000000 42.000000"
 preserveAspectRatio="xMidYMid meet">

<g transform="translate(0.000000,42.000000) scale(0.100000,-0.100000)"
fill="#000000" stroke="none">
<path d="M704 401 c-49 -22 -78 -58 -101 -122 l-18 -49 -295 -3 -295 -2 308
-3 c287 -2 307 -1 307 16 0 31 47 117 73 134 13 10 37 20 51 24 25 6 26 5 16
-21 -13 -34 -13 -70 1 -117 l10 -38 367 2 367 3 -358 2 -358 3 -10 28 c-11 27
-8 99 6 140 9 28 -13 29 -71 3z"/>
<path d="M8 195 c-3 -3 4 -46 15 -95 16 -69 24 -90 37 -90 13 0 20 17 30 70 7
39 16 70 20 70 4 0 12 -31 19 -70 10 -54 17 -70 30 -70 13 0 20 18 33 78 9 42
18 82 20 89 2 6 -1 13 -7 15 -8 3 -17 -21 -41 -117 -6 -27 -9 -24 -23 40 -11
48 -21 71 -33 73 -13 2 -19 -11 -29 -67 -7 -39 -15 -71 -18 -71 -4 0 -12 30
-19 68 -13 65 -23 88 -34 77z"/>
<path d="M250 106 c0 -57 4 -96 10 -96 6 0 10 36 10 89 0 50 -4 93 -10 96 -6
4 -10 -28 -10 -89z"/>
<path d="M644 192 c-6 -4 -16 -17 -23 -30 -17 -31 7 -68 52 -80 49 -13 42 -37
-10 -36 -35 1 -43 -3 -43 -17 0 -23 61 -36 95 -21 28 13 43 57 28 81 -5 9 -24
21 -41 27 -18 5 -37 15 -44 22 -16 16 13 26 52 18 25 -4 30 -2 30 13 0 26 -68
42 -96 23z"/>
<path d="M1462 192 c-13 -2 -37 -18 -53 -35 l-28 -32 -1 33 c0 25 -4 32 -20
32 -19 0 -20 -7 -20 -90 0 -83 1 -90 20 -90 16 0 20 7 20 30 0 17 3 30 6 30 3
0 17 -14 31 -30 18 -22 34 -30 56 -30 l31 0 -47 48 -47 47 42 42 c45 45 46 51
10 45z"/>
<path d="M310 100 c0 -73 3 -90 15 -90 11 0 15 11 15 40 0 58 32 54 64 -7 9
-18 21 -33 26 -33 14 0 13 5 -10 50 -12 24 -16 41 -10 45 14 9 12 59 -2 73 -7
7 -31 12 -55 12 l-43 0 0 -90z m85 40 c0 -20 -6 -26 -27 -28 -25 -3 -28 0 -28
28 0 28 3 31 28 28 21 -2 27 -8 27 -28z"/>
<path d="M470 100 l0 -90 61 0 c37 0 58 4 54 10 -3 6 -24 10 -46 10 -38 0 -39
1 -39 35 0 34 1 35 40 35 22 0 40 5 40 10 0 6 -18 10 -40 10 -36 0 -40 3 -40
25 0 23 4 25 40 25 22 0 40 5 40 10 0 6 -25 10 -55 10 l-55 0 0 -90z"/>
<path d="M790 100 c0 -83 1 -90 20 -90 17 0 20 7 20 40 0 38 2 40 30 40 28 0
30 -2 30 -40 0 -36 3 -40 25 -40 25 0 25 1 25 90 0 89 0 90 -25 90 -22 0 -25
-4 -25 -35 0 -32 -2 -35 -30 -35 -28 0 -30 3 -30 35 0 28 -4 35 -20 35 -19 0
-20 -7 -20 -90z"/>
<path d="M992 100 l-31 -90 25 0 c15 0 24 6 24 15 0 11 11 15 35 15 22 0 38
-6 41 -15 4 -8 16 -15 28 -15 l22 0 -30 90 c-29 83 -33 90 -58 90 -24 0 -28
-7 -56 -90z m68 28 c0 -7 3 -22 6 -33 4 -16 0 -21 -16 -21 -16 0 -20 5 -16 21
3 11 6 26 6 33 0 6 5 12 10 12 6 0 10 -6 10 -12z"/>
<path d="M1160 100 c0 -82 2 -90 19 -90 15 0 21 8 23 32 4 44 24 46 45 4 12
-26 23 -36 40 -36 20 0 22 3 12 27 -6 15 -14 32 -19 38 -6 7 -5 24 3 44 18 48
2 65 -67 69 l-56 3 0 -91z m85 35 c0 -13 -8 -21 -22 -23 -19 -3 -23 1 -23 23
0 22 4 26 23 23 14 -2 22 -10 22 -23z"/>
</g>
</svg>
